<?xml version="1.0" encoding="UTF-8" standalone="no"?>
<!-- Created with Inkscape (http://www.inkscape.org/) -->

<svg
   width="680mm"
   height="240mm"
   viewBox="0 0 680 240"
   version="1.1"
   id="svg1"
   xml:space="preserve"
   inkscape:version="1.3.2 (091e20ef0f, 2023-11-25)"
   sodipodi:docname="banner.svg"
   inkscape:export-filename="banner.png"
   inkscape:export-xdpi="25.4"
   inkscape:export-ydpi="25.4"
   xmlns:inkscape="http://www.inkscape.org/namespaces/inkscape"
   xmlns:sodipodi="http://sodipodi.sourceforge.net/DTD/sodipodi-0.dtd"
   xmlns="http://www.w3.org/2000/svg"
   xmlns:svg="http://www.w3.org/2000/svg"><sodipodi:namedview
     id="namedview1"
     pagecolor="#ffffff"
     bordercolor="#000000"
     borderopacity="0.25"
     inkscape:showpageshadow="2"
     inkscape:pageopacity="0.0"
     inkscape:pagecheckerboard="0"
     inkscape:deskcolor="#d1d1d1"
     inkscape:document-units="mm"
     inkscape:zoom="0.36391344"
     inkscape:cx="1283.2722"
     inkscape:cy="471.26591"
     inkscape:window-width="1920"
     inkscape:window-height="1014"
     inkscape:window-x="0"
     inkscape:window-y="29"
     inkscape:window-maximized="1"
     inkscape:current-layer="layer1" /><defs
     id="defs1" /><g
     inkscape:label="Layer 1"
     inkscape:groupmode="layer"
     id="layer1"><rect
       style="fill:#000000;fill-opacity:1;stroke:none;stroke-width:60.3319"
       id="rect1"
       width="692.11005"
       height="249.16861"
       x="-2.1533713"
       y="-1.1135826" /><g
       id="Group_466"
       data-name="Group 466"
       transform="matrix(4.7438982,0,0,4.7438982,-1763.9064,-2641.2163)"
       opacity="0.205"
       style="opacity:1;fill:none;fill-opacity:1;stroke:#ffffff;stroke-width:0.219313;stroke-dasharray:none;stroke-opacity:1"><path
         id="Path_4679"
         data-name="Path 4679"
         d="m 890.713,1316.94 0.921,1.5 1.5,-0.921 -0.9,-1.523 z"
         transform="translate(-487.695,-725.786)"
         style="fill:none;fill-opacity:1;stroke:#ffffff;stroke-width:0.219313;stroke-dasharray:none;stroke-opacity:1" /><path
         id="Path_4680"
         data-name="Path 4680"
         d="m 792.751,1316.94 0.94,1.5 1.485,-0.921 -0.9,-1.523 z"
         transform="translate(-392.196,-725.786)"
         style="fill:none;fill-opacity:1;stroke:#ffffff;stroke-width:0.219313;stroke-dasharray:none;stroke-opacity:1" /><path
         id="Path_4681"
         data-name="Path 4681"
         d="m 411.535,968.152 v -2.294 a 0.921,0.921 0 0 0 -0.113,-0.357 0.824,0.824 0 0 0 -0.254,-0.254 0.811,0.811 0 0 0 -0.442,-0.1 h -2.463 q -0.338,0 -0.714,0.038 a 2.977,2.977 0 0 0 -0.7,0.15 1.35,1.35 0 0 0 -0.536,0.338 0.859,0.859 0 0 0 -0.216,0.62 v 1.466 a 0.732,0.732 0 0 0 0.254,0.555 1.422,1.422 0 0 0 0.667,0.329 l 0.169,-0.094 a 1.089,1.089 0 0 1 -0.583,-0.508 0.5,0.5 0 0 1 0.075,-0.526 1.413,1.413 0 0 1 0.639,-0.414 3.177,3.177 0 0 1 1.109,-0.169 h 1.692 l -2.2,1.335 -1.767,1.053 v 0 q -0.544,0.337 -0.871,0.525 -0.327,0.188 -0.526,0.282 a 2.876,2.876 0 0 1 -0.282,0.122 0.508,0.508 0 0 1 -0.16,0.028 0.393,0.393 0 0 1 -0.291,-0.1 0.717,0.717 0 0 1 -0.16,-0.244 0.918,0.918 0 0 1 -0.066,-0.282 c -0.006,-0.094 -0.009,-0.172 -0.009,-0.235 l 0.79,-0.47 v -2.087 l -3.948,2.407 v 0 q -0.489,0.3 -0.827,0.489 -0.338,0.189 -0.545,0.291 a 3.272,3.272 0 0 1 -0.31,0.141 0.205,0.205 0 0 1 -0.141,0.019 0.484,0.484 0 0 1 -0.442,-0.31 1.5,1.5 0 0 1 -0.1,-0.536 q 0.319,-0.207 0.658,-0.4 0.339,-0.193 0.714,-0.423 a 1.313,1.313 0 0 0 0.658,-0.8 4.138,4.138 0 0 0 0.169,-0.987 3.053,3.053 0 0 0 -0.291,-1.438 2.2,2.2 0 0 0 -0.846,-0.949 2.16,2.16 0 0 0 -1.222,-0.291 2.551,2.551 0 0 0 -1.4,0.555 2.588,2.588 0 0 0 -0.855,1.109 3.406,3.406 0 0 0 -0.235,1.213 3.792,3.792 0 0 0 0.141,1.072 2.678,2.678 0 0 0 0.254,0.649 q -0.113,0.075 -0.414,0.254 -0.301,0.179 -0.705,0.423 -0.4,0.245 -0.865,0.526 l -0.874,0.536 q -0.414,0.254 -0.752,0.451 -0.338,0.197 -0.489,0.291 a 2.017,2.017 0 0 1 -0.639,0.263 0.675,0.675 0 0 1 -0.385,-0.028 0.379,0.379 0 0 1 -0.2,-0.2 1.065,1.065 0 0 1 -0.075,-0.244 h -0.169 v 0.846 a 1.823,1.823 0 0 0 0.169,0.837 0.977,0.977 0 0 0 0.451,0.461 1.164,1.164 0 0 0 0.649,0.085 1.928,1.928 0 0 0 0.761,-0.291 q 0.47,-0.282 1.081,-0.658 0.611,-0.376 1.683,-1.025 1.072,-0.649 2.764,-1.664 v 1.485 a 1.022,1.022 0 0 0 0.226,0.62 0.931,0.931 0 0 0 0.658,0.357 h 0.15 a 1.83,1.83 0 0 0 0.884,-0.235 q 0.432,-0.235 0.714,-0.422 v 0 l 2.877,-1.748 v 1.466 a 1.012,1.012 0 0 0 1.053,1 1.661,1.661 0 0 0 0.884,-0.254 q 0.413,-0.254 0.714,-0.4 v 0 z m -14.4,-0.169 -0.921,0.545 a 2.177,2.177 0 0 1 0.066,-1.128 2.589,2.589 0 0 1 0.517,-0.884 2.646,2.646 0 0 1 0.79,-0.6 3.208,3.208 0 0 1 0.884,-0.3 2.086,2.086 0 0 1 0.714,0.009 0.786,0.786 0 0 1 0.461,0.235 0.387,0.387 0 0 1 0.047,0.414 1.284,1.284 0 0 1 -0.545,0.526 z"
         transform="translate(0,-382.696)"
         style="fill:none;fill-opacity:1;stroke:#ffffff;stroke-width:0.219313;stroke-dasharray:none;stroke-opacity:1" /><path
         id="Path_4682"
         data-name="Path 4682"
         d="m 1147.281,709.964 q 0.018,-0.329 0.019,-0.761 v -7.9 l -1.579,1.015 v 7.482 l -1.166,0.714 v 0 q -1.974,1.184 -3.535,2.125 -0.658,0.414 -1.307,0.79 -0.649,0.376 -1.138,0.677 -0.6,0.338 -1.109,0.677 a 2.2,2.2 0 0 1 -0.658,0.263 0.582,0.582 0 0 1 -0.376,-0.038 0.437,0.437 0 0 1 -0.188,-0.2 2.3,2.3 0 0 1 -0.094,-0.235 h -0.169 v 0.846 a 1.686,1.686 0 0 0 0.179,0.827 1.032,1.032 0 0 0 1.1,0.555 1.925,1.925 0 0 0 0.752,-0.291 q 0.019,-0.019 0.5,-0.3 0.481,-0.281 1.185,-0.705 l 1.532,-0.921 q 0.827,-0.5 1.551,-0.931 0.724,-0.431 1.222,-0.733 0.5,-0.3 0.554,-0.338 v 0 l 1.73,-1.053 a 2.453,2.453 0 0 0 0.583,-0.461 1.514,1.514 0 0 0 0.3,-0.508 2.233,2.233 0 0 0 0.112,-0.596 z"
         transform="translate(-726.797,-126.547)"
         style="fill:none;fill-opacity:1;stroke:#ffffff;stroke-width:0.219313;stroke-dasharray:none;stroke-opacity:1" /><path
         id="Path_4683"
         data-name="Path 4683"
         d="m 1650.535,704.495 -1.579,0.978 v 10.961 l 1.579,-0.978 z"
         transform="translate(-1226.874,-129.656)"
         style="fill:none;fill-opacity:1;stroke:#ffffff;stroke-width:0.219313;stroke-dasharray:none;stroke-opacity:1" /><path
         id="Path_4684"
         data-name="Path 4684"
         d="m 1820.215,958.783 -0.921,-1.523 -1.5,0.94 0.921,1.5 z"
         transform="translate(-1391.463,-376.066)"
         style="fill:none;fill-opacity:1;stroke:#ffffff;stroke-width:0.219313;stroke-dasharray:none;stroke-opacity:1" /><path
         id="Path_4685"
         data-name="Path 4685"
         d="m 1596.306,1007.211 a 2.13,2.13 0 0 1 -0.63,0 0.849,0.849 0 0 1 -0.413,-0.16 q 0.432,-0.263 0.7,-0.432 0.268,-0.169 0.432,-0.263 0.16,-0.094 0.235,-0.141 a 0.673,0.673 0 0 0 0.113,-0.085 v 0 l 5.377,-3.253 v -2.277 a 0.8,0.8 0 0 0 -0.15,-0.376 0.705,0.705 0 0 0 -0.235,-0.235 0.811,0.811 0 0 0 -0.442,-0.1 h -2.463 a 3.06,3.06 0 0 0 -0.536,0.056 1.744,1.744 0 0 0 -0.6,0.235 1.488,1.488 0 0 0 -0.489,0.5 1.6,1.6 0 0 0 -0.2,0.846 v 1.56 h 0.282 a 1.969,1.969 0 0 1 0.1,-0.414 1.506,1.506 0 0 1 0.273,-0.47 1.452,1.452 0 0 1 0.508,-0.376 2.005,2.005 0 0 1 0.846,-0.15 h 1.673 l -3.948,2.388 v 0 q -0.563,0.357 -1,0.61 -0.437,0.253 -1.006,0.592 v -1.485 a 0.942,0.942 0 0 0 -0.141,-0.47 1.018,1.018 0 0 0 -0.395,-0.385 1.162,1.162 0 0 0 -0.63,-0.122 1.893,1.893 0 0 0 -0.865,0.32 l -1.56,0.94 v 0 q -0.545,0.338 -0.874,0.526 -0.329,0.188 -0.526,0.282 a 1.416,1.416 0 0 1 -0.292,0.113 0.8,0.8 0 0 1 -0.15,0.019 0.417,0.417 0 0 1 -0.273,-0.085 0.571,0.571 0 0 1 -0.16,-0.207 0.9,0.9 0 0 1 -0.075,-0.263 1.806,1.806 0 0 1 -0.019,-0.235 q 0.432,-0.263 0.733,-0.442 0.301,-0.179 0.357,-0.216 v -2.087 l -7.2,4.305 a 2.081,2.081 0 0 1 -0.733,0.282 1.744,1.744 0 0 1 -0.865,-0.028 1.358,1.358 0 0 1 -0.714,-0.536 2.1,2.1 0 0 1 -0.3,-1.241 h -0.244 a 7.033,7.033 0 0 0 0.019,1.363 3.106,3.106 0 0 0 0.357,1.175 1.977,1.977 0 0 0 0.8,0.79 2.343,2.343 0 0 0 1.344,0.207 2.213,2.213 0 0 0 0.78,-0.207 q 0.348,-0.169 0.667,-0.357 l 1.448,-0.884 3.29,-1.974 v 1.448 a 0.994,0.994 0 0 0 0.273,0.667 0.96,0.96 0 0 0 0.761,0.31 1.775,1.775 0 0 0 0.874,-0.235 q 0.423,-0.235 0.723,-0.423 v 0 l 0.611,-0.376 q 0.367,-0.226 0.7,-0.423 0.333,-0.197 0.8,-0.5 a 1.847,1.847 0 0 1 0.7,-0.282 0.439,0.439 0 0 1 0.357,0.094 0.513,0.513 0 0 1 0.141,0.291 1.951,1.951 0 0 1 0.028,0.292 v 2.444 a 2.123,2.123 0 0 0 0.151,0.874 1.186,1.186 0 0 0 0.395,0.5 1.4,1.4 0 0 0 0.545,0.226 3.249,3.249 0 0 0 0.6,0.056 1.966,1.966 0 0 0 0.47,-0.066 1.832,1.832 0 0 0 0.5,-0.207 1.349,1.349 0 0 0 0.395,-0.357 0.878,0.878 0 0 0 0.16,-0.536 v -1.5 a 2.27,2.27 0 0 1 -0.667,0.376 3.523,3.523 0 0 1 -0.723,0.174 z"
         transform="translate(-1159.441,-417.622)"
         style="fill:none;fill-opacity:1;stroke:#ffffff;stroke-width:0.219313;stroke-dasharray:none;stroke-opacity:1" /><path
         id="Path_4686"
         data-name="Path 4686"
         d="m 2362.555,755.046 -1.165,0.714 v 0 q -1.974,1.184 -3.535,2.124 -0.658,0.414 -1.307,0.79 -0.649,0.376 -1.137,0.677 -0.6,0.338 -1.109,0.677 a 2.2,2.2 0 0 1 -0.658,0.263 0.582,0.582 0 0 1 -0.376,-0.038 0.438,0.438 0 0 1 -0.188,-0.2 2.306,2.306 0 0 1 -0.094,-0.235 h -0.169 v 0.846 a 1.688,1.688 0 0 0 0.179,0.827 1.032,1.032 0 0 0 1.1,0.555 1.921,1.921 0 0 0 0.752,-0.291 q 0.019,-0.019 0.5,-0.3 0.481,-0.281 1.185,-0.705 l 1.532,-0.921 q 0.827,-0.5 1.551,-0.931 0.724,-0.431 1.222,-0.733 0.5,-0.3 0.554,-0.338 v 0 l 1.729,-1.053 a 2.452,2.452 0 0 0 0.583,-0.461 1.515,1.515 0 0 0 0.3,-0.508 2.241,2.241 0 0 0 0.113,-0.6 q 0.018,-0.329 0.019,-0.762 v -7.9 l -1.579,1.015 z"
         transform="translate(-1913.037,-170.652)"
         style="fill:none;fill-opacity:1;stroke:#ffffff;stroke-width:0.219313;stroke-dasharray:none;stroke-opacity:1" /><path
         id="Path_4687"
         data-name="Path 4687"
         d="m 2865.791,861.675 1.579,-0.978 v -10.961 l -1.579,0.978 z"
         transform="translate(-2413.115,-271.246)"
         style="fill:none;fill-opacity:1;stroke:#ffffff;stroke-width:0.219313;stroke-dasharray:none;stroke-opacity:1" /><path
         id="Path_4688"
         data-name="Path 4688"
         d="m 3385.543,572.51 a 2.223,2.223 0 0 1 0.15,0.526 2.507,2.507 0 0 1 0,0.752 q -0.038,0.32 -0.038,0.4 c 0,0.057 0.012,0.072 0.038,0.047 a 0.509,0.509 0 0 0 0.084,-0.169 c 0.031,-0.088 0.066,-0.175 0.1,-0.263 a 4.688,4.688 0 0 0 0.151,-0.451 2.337,2.337 0 0 0 0.085,-0.573 1.943,1.943 0 0 0 -0.094,-0.639 1.818,1.818 0 0 0 -0.385,-0.649 l -0.376,0.639 a 1.243,1.243 0 0 1 0.285,0.38 z"
         transform="translate(-2919.525)"
         style="fill:none;fill-opacity:1;stroke:#ffffff;stroke-width:0.219313;stroke-dasharray:none;stroke-opacity:1" /><path
         id="Path_4689"
         data-name="Path 4689"
         d="m 3352.014,662.77 a 0.435,0.435 0 0 1 0.122,0.263 1.621,1.621 0 0 1 0,0.348 0.738,0.738 0 0 0 0.038,0.338 0.7,0.7 0 0 0 0.169,0.207 0.454,0.454 0 0 0 0.226,0.094 0.534,0.534 0 0 0 0.338,-0.113 0.171,0.171 0 0 1 0.047,-0.019 0.163,0.163 0 0 0 0.047,-0.019 q 0.188,-0.131 0.414,-0.32 a 0.579,0.579 0 0 0 0.207,-0.508 0.376,0.376 0 0 0 0.423,0.16 1.962,1.962 0 0 0 0.63,-0.348 1.6,1.6 0 0 0 0.122,-0.15 0.952,0.952 0 0 0 0.141,-0.32 1.368,1.368 0 0 0 0.019,-0.517 2.5,2.5 0 0 0 -0.244,-0.743 2.854,2.854 0 0 1 -0.226,-0.479 0.586,0.586 0 0 1 -0.056,-0.273 q 0,-0.018 -0.113,0.085 a 0.7,0.7 0 0 0 -0.178,0.32 1.236,1.236 0 0 0 -0.019,0.536 1.771,1.771 0 0 0 0.367,0.752 h -0.019 l -0.658,0.414 a 0.231,0.231 0 0 1 -0.132,0.038 q -0.169,-0.037 -0.15,-0.169 a 2.411,2.411 0 0 0 0,-0.432 0.68,0.68 0 0 0 -0.263,-0.564 0.464,0.464 0 0 0 -0.526,-0.075 v 0.7 h 0.16 a 0.5,0.5 0 0 1 0.207,0.047 0.326,0.326 0 0 1 0.16,0.169 0.673,0.673 0 0 1 0.019,0.367 0.644,0.644 0 0 1 -0.122,0.254 1.206,1.206 0 0 1 -0.179,0.179 1.758,1.758 0 0 1 -0.225,0.15 0.444,0.444 0 0 1 -0.245,0.1 0.123,0.123 0 0 1 -0.1,-0.094 0.609,0.609 0 0 1 -0.019,-0.226 c 0.01,-0.094 0.01,-0.191 0.01,-0.291 a 0.673,0.673 0 0 0 -0.263,-0.573 0.472,0.472 0 0 0 -0.526,-0.066 v 0.7 a 0.535,0.535 0 0 1 0.397,0.078 z"
         transform="translate(-2886.72,-86.641)"
         style="fill:none;fill-opacity:1;stroke:#ffffff;stroke-width:0.219313;stroke-dasharray:none;stroke-opacity:1" /><path
         id="Path_4690"
         data-name="Path 4690"
         d="m 2969.845,743.911 q -0.583,0.357 -0.978,0.592 -0.395,0.235 -0.668,0.395 a 2.981,2.981 0 0 1 -0.451,0.226 1.553,1.553 0 0 1 -0.311,0.085 0.338,0.338 0 0 1 -0.244,-0.047 0.52,0.52 0 0 1 -0.15,-0.16 2.634,2.634 0 0 0 0.63,-0.479 1.706,1.706 0 0 0 0.348,-0.545 2.268,2.268 0 0 0 0.141,-0.639 q 0.028,-0.348 0.028,-0.762 v -5.565 l -1.579,1.015 v 5.133 q -1.2,0.733 -1.89,1.138 -0.69,0.405 -1.043,0.6 a 3.321,3.321 0 0 1 -0.479,0.235 0.686,0.686 0 0 1 -0.179,0.038 0.457,0.457 0 0 1 -0.282,-0.085 0.536,0.536 0 0 1 -0.169,-0.207 0.907,0.907 0 0 1 -0.075,-0.273 2.2,2.2 0 0 1 -0.019,-0.282 l 0.019,-1.73 a 0.972,0.972 0 0 0 -0.141,-0.489 0.933,0.933 0 0 0 -0.414,-0.376 1.258,1.258 0 0 0 -0.649,-0.1 2,2 0 0 0 -0.865,0.329 q -0.676,0.395 -1.147,0.686 -0.471,0.291 -0.865,0.555 -0.4,0.263 -0.781,0.5 -0.381,0.237 -0.893,0.517 a 1.264,1.264 0 0 1 -0.677,0.244 0.494,0.494 0 0 1 -0.366,-0.169 0.642,0.642 0 0 1 -0.141,-0.357 q -0.019,-0.207 -0.019,-0.32 v -0.019 h -0.263 v 1.655 a 1.024,1.024 0 0 0 0.132,0.489 0.936,0.936 0 0 0 0.395,0.385 1.2,1.2 0 0 0 0.639,0.122 1.888,1.888 0 0 0 0.865,-0.32 l 0.743,-0.451 q 0.4,-0.244 0.827,-0.508 0.427,-0.264 0.837,-0.517 0.413,-0.254 0.79,-0.479 a 2.37,2.37 0 0 1 0.254,-0.16 2.425,2.425 0 0 0 0.254,-0.16 1.518,1.518 0 0 1 0.63,-0.235 0.48,0.48 0 0 1 0.357,0.1 0.594,0.594 0 0 1 0.169,0.291 1.251,1.251 0 0 1 0.047,0.31 v 1.861 a 1.017,1.017 0 0 0 0.272,0.686 0.96,0.96 0 0 0 0.762,0.31 1.645,1.645 0 0 0 0.827,-0.226 q 0.395,-0.226 0.7,-0.395 0.469,-0.282 0.931,-0.555 0.462,-0.273 0.931,-0.573 v 0.752 a 1.016,1.016 0 0 0 0.272,0.686 0.96,0.96 0 0 0 0.762,0.31 1.527,1.527 0 0 0 0.536,-0.094 3.912,3.912 0 0 0 0.5,-0.226 q 0.32,-0.188 0.526,-0.3 0.206,-0.112 0.376,-0.216 l 0.357,-0.216 0.47,-0.282 q 0.15,-0.094 0.348,-0.226 a 1.759,1.759 0 0 0 0.639,-1.185 q 0.029,-0.395 0.028,-0.921 v -8.047 l -1.6,1 z"
         transform="translate(-2500.348,-159.65)"
         style="fill:none;fill-opacity:1;stroke:#ffffff;stroke-width:0.219313;stroke-dasharray:none;stroke-opacity:1" /><path
         id="Path_4691"
         data-name="Path 4691"
         d="m 3661.525,676.541 -1.579,0.978 v 10.961 l 1.579,-0.978 z"
         transform="translate(-3187.303,-102.405)"
         style="fill:none;fill-opacity:1;stroke:#ffffff;stroke-width:0.219313;stroke-dasharray:none;stroke-opacity:1" /><path
         id="Path_4692"
         data-name="Path 4692"
         d="m 4465.479,1314.6 0.921,1.5 1.5,-0.921 -0.921,-1.523 z"
         transform="translate(-3972.583,-723.51)"
         style="fill:none;fill-opacity:1;stroke:#ffffff;stroke-width:0.219313;stroke-dasharray:none;stroke-opacity:1" /><path
         id="Path_4693"
         data-name="Path 4693"
         d="m 3621.36,954.968 v 0 q -0.563,0.338 -0.883,0.526 -0.32,0.188 -0.479,0.273 a 0.8,0.8 0 0 1 -0.235,0.094 1.325,1.325 0 0 1 -0.169,0.009 0.5,0.5 0 0 1 -0.395,-0.207 1,1 0 0 1 -0.169,-0.639 V 954.2 q -0.32,0.188 -0.6,0.357 -0.28,0.169 -0.573,0.338 l -0.6,0.348 q -0.31,0.179 -0.667,0.4 a 1.185,1.185 0 0 1 -0.272,0.132 c -0.082,0.025 -0.153,0.05 -0.216,0.075 a 0.585,0.585 0 0 1 -0.357,-0.028 0.545,0.545 0 0 1 -0.216,-0.2 0.781,0.781 0 0 1 -0.113,-0.3 2.03,2.03 0 0 1 -0.028,-0.338 l -0.019,-0.79 q -0.15,0.094 -0.536,0.329 -0.386,0.235 -0.79,0.47 -0.4,0.235 -0.733,0.423 c -0.219,0.125 -0.335,0.195 -0.348,0.207 a 1.626,1.626 0 0 1 -0.489,0.207 0.635,0.635 0 0 1 -0.329,-0.009 0.45,0.45 0 0 1 -0.226,-0.16 0.841,0.841 0 0 1 -0.132,-0.273 1.1,1.1 0 0 1 -0.047,-0.31 v -0.9 q -0.338,0.207 -0.639,0.4 -0.301,0.193 -0.621,0.385 v 0 q -0.489,0.3 -0.827,0.489 -0.338,0.189 -0.545,0.291 a 3.27,3.27 0 0 1 -0.31,0.141 0.205,0.205 0 0 1 -0.141,0.019 0.485,0.485 0 0 1 -0.442,-0.31 1.5,1.5 0 0 1 -0.1,-0.536 q 0.319,-0.207 0.658,-0.4 0.339,-0.193 0.714,-0.423 a 1.314,1.314 0 0 0 0.658,-0.8 4.142,4.142 0 0 0 0.169,-0.987 3.051,3.051 0 0 0 -0.291,-1.438 2.2,2.2 0 0 0 -0.846,-0.95 2.161,2.161 0 0 0 -1.222,-0.291 2.551,2.551 0 0 0 -1.4,0.555 2.582,2.582 0 0 0 -0.855,1.109 3.4,3.4 0 0 0 -0.235,1.213 3.8,3.8 0 0 0 0.141,1.072 2.686,2.686 0 0 0 0.254,0.649 q -0.113,0.075 -0.414,0.254 -0.301,0.179 -0.705,0.423 -0.4,0.245 -0.865,0.526 l -0.875,0.536 q -0.414,0.254 -0.752,0.451 -0.338,0.197 -0.489,0.291 a 2.012,2.012 0 0 1 -0.639,0.263 0.676,0.676 0 0 1 -0.386,-0.028 0.38,0.38 0 0 1 -0.2,-0.2 1.058,1.058 0 0 1 -0.075,-0.244 h -0.169 v 0.846 a 1.824,1.824 0 0 0 0.169,0.837 0.978,0.978 0 0 0 0.451,0.461 1.163,1.163 0 0 0 0.648,0.085 1.927,1.927 0 0 0 0.762,-0.291 q 0.469,-0.282 1.081,-0.658 0.612,-0.376 1.683,-1.025 1.072,-0.649 2.764,-1.664 v 1.485 a 1.019,1.019 0 0 0 0.226,0.62 0.93,0.93 0 0 0 0.658,0.357 h 0.15 a 1.828,1.828 0 0 0 0.884,-0.235 q 0.431,-0.234 0.713,-0.422 v 0 l 1,-0.62 v 0.244 a 1.011,1.011 0 0 0 0.2,0.667 0.932,0.932 0 0 0 0.5,0.31 1.461,1.461 0 0 0 0.658,0 2.247,2.247 0 0 0 0.677,-0.263 l 1.617,-0.959 v 0.244 a 1.092,1.092 0 0 0 0.94,1.034 1.259,1.259 0 0 0 0.573,-0.056 3.184,3.184 0 0 0 0.536,-0.244 l 1.523,-0.94 v 0.226 a 1.012,1.012 0 0 0 1.053,1 1.928,1.928 0 0 0 0.9,-0.226 7.9,7.9 0 0 0 0.714,-0.414 v 0 l 4.325,-2.613 v -2.087 z m -14.383,-1.279 -0.921,0.545 a 2.174,2.174 0 0 1 0.065,-1.128 2.593,2.593 0 0 1 0.517,-0.884 2.642,2.642 0 0 1 0.79,-0.6 3.21,3.21 0 0 1 0.883,-0.3 2.081,2.081 0 0 1 0.714,0.009 0.786,0.786 0 0 1 0.461,0.235 0.387,0.387 0 0 1 0.046,0.414 1.283,1.283 0 0 1 -0.544,0.526 z"
         transform="translate(-3129.141,-368.761)"
         style="fill:none;fill-opacity:1;stroke:#ffffff;stroke-width:0.219313;stroke-dasharray:none;stroke-opacity:1" /></g></g></svg>
