<?xml version="1.0" encoding="UTF-8" standalone="no"?>
<!-- Provided by EmojiOne. -->

<svg
   viewBox="0 0 64 64"
   version="1.1"
   id="svg22"
   sodipodi:docname="logo-nightly.svg"
   inkscape:version="1.3.2 (091e20ef0f, 2023-11-25)"
   inkscape:export-filename="logo-nightly.png"
   inkscape:export-xdpi="819.20001"
   inkscape:export-ydpi="819.20001"
   xmlns:inkscape="http://www.inkscape.org/namespaces/inkscape"
   xmlns:sodipodi="http://sodipodi.sourceforge.net/DTD/sodipodi-0.dtd"
   xmlns="http://www.w3.org/2000/svg"
   xmlns:svg="http://www.w3.org/2000/svg">
  <sodipodi:namedview
     id="namedview22"
     pagecolor="#ffffff"
     bordercolor="#000000"
     borderopacity="0.25"
     inkscape:showpageshadow="2"
     inkscape:pageopacity="0.0"
     inkscape:pagecheckerboard="0"
     inkscape:deskcolor="#d1d1d1"
     inkscape:zoom="10.515625"
     inkscape:cx="31.952452"
     inkscape:cy="32"
     inkscape:window-width="3840"
     inkscape:window-height="2075"
     inkscape:window-x="0"
     inkscape:window-y="48"
     inkscape:window-maximized="1"
     inkscape:current-layer="layer1" />
  <defs
     id="defs1">
    <path
       id="emojioneKaaba0"
       d="M33.2 44.5H62v10H33.2zm-18.7 0h8.8v10h-8.8z" />
  </defs>
  <g
     fill="#3e4347"
     id="g2">
    <path
       d="M14.5 62L2 49.5V2l12.5 12.5zm0-47.5H62V62H14.5z"
       id="path1" />
    <path
       d="M62 14.5H14.5L2 2h47.5z"
       id="path2" />
  </g>
  <path
     fill="#e8e8e8"
     d="M15.5 12H56l-7.5-7.5H8z"
     id="path3" />
  <path
     fill="#b2c1c0"
     d="m10.5 7l5 5h36.7l-5-5z"
     id="path4" />
  <path
     fill="#dbb471"
     d="M14.5 29.5H62v5H14.5z"
     id="path5" />
  <path
     fill="#b2c1c0"
     d="M14.5 62L2 49.5V2l12.5 12.5z"
     opacity="0.33"
     id="path6" />
  <path
     fill="#fbbf67"
     d="M14.5 34.5L2 22v-5l12.5 12.5z"
     id="path7" />
  <path
     fill="#dbb471"
     d="M39.5 37h13.8v5H39.5zm20 0H62v5h-2.5zm-45 0H17v5h-2.5zm23.2 1.6c-.6-.6-.3-1.1-.3-1.1l-1-.5l-1.1.5s.3.5-.3 1.1c-.3.3-.5.6-.5 1.1c0 .4.3.7.5 1c.3.6.7 1.3 1.4 1.3s1.1-.6 1.4-1.3c.2-.3.5-.6.5-1c-.1-.5-.3-.8-.6-1.1m-16.2 0c-.6-.6-.3-1.1-.3-1.1l-1.1-.5l-1.1.5s.3.5-.3 1.1c-.3.3-.5.6-.5 1.1c0 .4.3.7.5 1c.3.6.7 1.3 1.4 1.3s1.1-.6 1.4-1.3c.2-.3.5-.6.5-1c0-.5-.2-.8-.5-1.1m36.2 0c-.6-.6-.3-1.1-.3-1.1l-1-.5l-1.1.5s.3.5-.3 1.1c-.3.3-.5.6-.5 1.1c0 .4.3.7.5 1c.3.6.7 1.3 1.4 1.3s1.1-.6 1.4-1.3c.2-.3.5-.6.5-1c-.1-.5-.3-.8-.6-1.1"
     id="path8" />
  <path
     fill="#fbbf67"
     d="M13.2 35.8v5l1.3 1.2v-5z"
     id="path9" />
  <use
     href="#emojioneKaaba0"
     fill="#e8e8e8"
     id="use9" />
  <path
     fill="#fbbf67"
     d="M12.5 36.5c-.2-.8-.1-1.2-.1-1.2l-.4-.8l-.4.1s.1.6-.1 1c-.1.2-.2.5-.2.9s.1.8.2 1.2c.1.7.2 1.5.5 1.7c.2.2.4-.3.5-.8c.1-.3.2-.5.2-.9c-.1-.4-.2-.8-.2-1.2m-5-5c-.2-.8-.1-1.2-.1-1.2l-.4-.8l-.4.1s.1.6-.1 1c-.1.2-.2.5-.2.9s.1.8.2 1.2c.1.7.2 1.5.5 1.7c.2.2.4-.3.5-.8c.1-.3.2-.5.2-.9c-.1-.4-.2-.8-.2-1.2m.7-.7v5l2.5 2.4v-5zm-5-5v5l2.6 2.4v-5z"
     id="path10" />
  <path
     fill="#e8e8e8"
     d="m2 42l12.5 12.5v-10L2 32z"
     id="path11" />
  <use
     href="#emojioneKaaba0"
     fill="#3e4347"
     opacity="0.2"
     id="use11" />
  <path
     fill="#dbb471"
     d="M14.5 54.5H62V62H14.5z"
     id="path12" />
  <path
     fill="#3e4347"
     d="M14.5 54.5H62V62H14.5z"
     opacity="0.5"
     id="path13" />
  <path
     fill="#dbb471"
     d="M14.5 62L2 49.5V42l12.5 12.5z"
     id="path14" />
  <path
     fill="#3e4347"
     d="M14.5 62L2 49.5V42l12.5 12.5z"
     opacity="0.25"
     id="path15" />
  <path
     fill="#ffce31"
     d="M23.2 42h10v17.5h-10z"
     id="path16" />
  <g
     fill="#f2b200"
     id="g18">
    <path
       d="M23.2 58.2h10v1.2h-10z"
       id="path17" />
    <path
       d="M32 37h1.2v22.5H32z"
       id="path18" />
  </g>
  <path
     fill="#dbb471"
     d="M23.2 37v17.5h4.3l.7-5l.8 5h4.2V37z"
     id="path19" />
  <g
     fill="#fff"
     id="g21">
    <path
       d="M30.8 47h-5.1l-1.2-1.2l1.2-1.3h5.1l1.2 1.3z"
       opacity="0.33"
       id="path20" />
    <circle
       cx="30.8"
       cy="50.8"
       r="1.3"
       opacity="0.33"
       id="circle20" />
    <circle
       cx="25.8"
       cy="50.8"
       r="1.2"
       opacity="0.33"
       id="circle21" />
    <path
       d="M25.8 41c-.2-.2-.1-.4-.1-.4l-.4-.2l-.4.2s.1.2-.1.4c-.1.1-.2.3-.2.4c0 .2.1.3.2.4c.1.3.3.5.6.5s.4-.3.6-.5c.1-.1.2-.3.2-.4c-.2-.1-.3-.3-.4-.4m2 0c-.2-.2-.1-.4-.1-.4l-.4-.2l-.4.2s.1.2-.1.4c-.1.1-.2.3-.2.4c0 .2.1.3.2.4c.1.3.3.5.6.5s.4-.3.6-.5c.1-.1.2-.3.2-.4c-.2-.1-.3-.3-.4-.4m2 0c-.2-.2-.1-.4-.1-.4l-.4-.2l-.4.2s.1.2-.1.4c-.1.1-.2.3-.2.4c0 .2.1.3.2.4c.1.3.3.5.6.5s.4-.3.6-.5c.1-.1.2-.3.2-.4c-.2-.1-.3-.3-.4-.4m2 0c-.2-.2-.1-.4-.1-.4l-.4-.2l-.4.2s.1.2-.1.4c-.1.1-.2.3-.2.4c0 .2.1.3.2.4c.1.3.3.5.6.5s.4-.3.6-.5c.1-.1.2-.3.2-.4c-.2-.1-.3-.3-.4-.4"
       opacity="0.33"
       id="path21" />
  </g>
  <path
     fill="#dbb471"
     d="m14.5 59.3l-1.7-1.7v-2.1l1.7 1.7v-.4l-3.6-3.6v-2.3l-.3-.3v2.3l-2.2-2.2v-2.3l-.3-.3v2.3L4.7 47v-2.3l-.3-.3v2.3L2 44.3v.4l.8.8v2.1l-.8-.8v.4l2.3 2.3v2.3l.3.3v-2.3L6.8 52v2.3l.3.3v-2.3l4.1 4.1v2.3l.3.3v-2.3l3 3zm-8.9-8.9l-2.5-2.5v-2.1l2.5 2.5zm3.7 3.7l-3.4-3.4v-2.1L9.3 52zm3.2 3.1l-2.8-2.8v-2.1l2.8 2.8zm49.5 0v-.3h-5.5v-2.3h-.3v2.3h-4.8v-2.3h-.3v2.3h-4.6v-2.3h-.3v2.3h-4.1v-2.3h-.3v2.3h-5.3v-2.3h-.3v2.3h-3v.3H38v2.2H20.3v-2.2h3v-.3h-4.8v-2.3h-.3v2.3h-3.6v.3H20v2.2h-5.5v.3h1.1V62h.3v-2.3h5.9V62h.3v-2.3H27V62h.3v-2.3H31V62h.3v-2.3h2.9V62h.3v-2.3H40V62h.3v-2.3h5V62h.3v-2.3H51V62h.3v-2.3h4.8V62h.3v-2.3H62v-.3h-3.6v-2.2zm-18.3 2.1h-5.3v-2.2h5.3zm3.8 0H44v-2.2h3.4zm5.6 0h-5.3v-2.2h5.3zm5 0h-4.7v-2.2h4.7z"
     id="path22" />
  <g
     inkscape:groupmode="layer"
     id="layer1"
     inkscape:label="Layer 1">
    <text
       xml:space="preserve"
       style="font-size:16px;line-height:1.1;font-family:'Source Serif Pro';-inkscape-font-specification:'Source Serif Pro';fill:#ffff00;stroke:#000000;stroke-width:0;stroke-dasharray:none"
       x="14.663898"
       y="27.798639"
       id="text22"><tspan
         sodipodi:role="line"
         id="tspan22"
         x="14.663898"
         y="27.798639"
         style="font-style:normal;font-variant:normal;font-weight:bold;font-stretch:normal;font-size:16px;font-family:'Noto Sans';-inkscape-font-specification:'Noto Sans Bold';fill:#ff0000;fill-opacity:1;stroke-width:0;stroke-dasharray:none">DEV</tspan></text>
  </g>
</svg>
