<?xml version="1.0" encoding="UTF-8" standalone="no"?>
<!-- Provided by EmojiOne. -->

<svg
   viewBox="0 0 100 100"
   version="1.1"
   id="svg22"
   sodipodi:docname="logo-avatar.svg"
   width="100"
   height="100"
   inkscape:version="1.3.2 (091e20ef0f, 2023-11-25)"
   inkscape:export-filename="logo-avatar.png"
   inkscape:export-xdpi="96"
   inkscape:export-ydpi="96"
   xmlns:inkscape="http://www.inkscape.org/namespaces/inkscape"
   xmlns:sodipodi="http://sodipodi.sourceforge.net/DTD/sodipodi-0.dtd"
   xmlns="http://www.w3.org/2000/svg"
   xmlns:svg="http://www.w3.org/2000/svg">
  <sodipodi:namedview
     id="namedview22"
     pagecolor="#ffffff"
     bordercolor="#000000"
     borderopacity="0.25"
     inkscape:showpageshadow="2"
     inkscape:pageopacity="0.0"
     inkscape:pagecheckerboard="0"
     inkscape:deskcolor="#d1d1d1"
     inkscape:zoom="10.515625"
     inkscape:cx="31.952452"
     inkscape:cy="32"
     inkscape:window-width="3840"
     inkscape:window-height="2075"
     inkscape:window-x="0"
     inkscape:window-y="48"
     inkscape:window-maximized="1"
     inkscape:current-layer="svg22" />
  <defs
     id="defs1">
    <path
       id="emojioneKaaba0"
       d="M 33.2,44.5 H 62 v 10 H 33.2 Z m -18.7,0 h 8.8 v 10 h -8.8 z" />
  </defs>
  <g
     fill="#3e4347"
     id="g2"
     transform="translate(18,18)">
    <path
       d="M 14.5,62 2,49.5 V 2 l 12.5,12.5 z m 0,-47.5 H 62 V 62 H 14.5 Z"
       id="path1" />
    <path
       d="M 62,14.5 H 14.5 L 2,2 h 47.5 z"
       id="path2" />
  </g>
  <path
     fill="#e8e8e8"
     d="M 33.5,30 H 74 L 66.5,22.5 H 26 Z"
     id="path3" />
  <path
     fill="#b2c1c0"
     d="m 28.5,25 5,5 h 36.7 l -5,-5 z"
     id="path4" />
  <path
     fill="#dbb471"
     d="M 32.5,47.5 H 80 v 5 H 32.5 Z"
     id="path5" />
  <path
     fill="#b2c1c0"
     d="M 32.5,80 20,67.5 V 20 l 12.5,12.5 z"
     opacity="0.33"
     id="path6" />
  <path
     fill="#fbbf67"
     d="M 32.5,52.5 20,40 v -5 l 12.5,12.5 z"
     id="path7" />
  <path
     fill="#dbb471"
     d="m 57.5,55 h 13.8 v 5 H 57.5 Z m 20,0 H 80 v 5 h -2.5 z m -45,0 H 35 v 5 h -2.5 z m 23.2,1.6 C 55.1,56 55.4,55.5 55.4,55.5 l -1,-0.5 -1.1,0.5 c 0,0 0.3,0.5 -0.3,1.1 -0.3,0.3 -0.5,0.6 -0.5,1.1 0,0.4 0.3,0.7 0.5,1 0.3,0.6 0.7,1.3 1.4,1.3 0.7,0 1.1,-0.6 1.4,-1.3 0.2,-0.3 0.5,-0.6 0.5,-1 -0.1,-0.5 -0.3,-0.8 -0.6,-1.1 m -16.2,0 C 38.9,56 39.2,55.5 39.2,55.5 L 38.1,55 37,55.5 c 0,0 0.3,0.5 -0.3,1.1 -0.3,0.3 -0.5,0.6 -0.5,1.1 0,0.4 0.3,0.7 0.5,1 0.3,0.6 0.7,1.3 1.4,1.3 0.7,0 1.1,-0.6 1.4,-1.3 0.2,-0.3 0.5,-0.6 0.5,-1 0,-0.5 -0.2,-0.8 -0.5,-1.1 m 36.2,0 C 75.1,56 75.4,55.5 75.4,55.5 l -1,-0.5 -1.1,0.5 c 0,0 0.3,0.5 -0.3,1.1 -0.3,0.3 -0.5,0.6 -0.5,1.1 0,0.4 0.3,0.7 0.5,1 0.3,0.6 0.7,1.3 1.4,1.3 0.7,0 1.1,-0.6 1.4,-1.3 0.2,-0.3 0.5,-0.6 0.5,-1 -0.1,-0.5 -0.3,-0.8 -0.6,-1.1"
     id="path8" />
  <path
     fill="#fbbf67"
     d="m 31.2,53.8 v 5 l 1.3,1.2 v -5 z"
     id="path9" />
  <use
     href="#emojioneKaaba0"
     fill="#e8e8e8"
     id="use9"
     transform="translate(18,18)" />
  <path
     fill="#fbbf67"
     d="M 30.5,54.5 C 30.3,53.7 30.4,53.3 30.4,53.3 L 30,52.5 29.6,52.6 c 0,0 0.1,0.6 -0.1,1 -0.1,0.2 -0.2,0.5 -0.2,0.9 0,0.4 0.1,0.8 0.2,1.2 0.1,0.7 0.2,1.5 0.5,1.7 0.2,0.2 0.4,-0.3 0.5,-0.8 0.1,-0.3 0.2,-0.5 0.2,-0.9 -0.1,-0.4 -0.2,-0.8 -0.2,-1.2 m -5,-5 C 25.3,48.7 25.4,48.3 25.4,48.3 L 25,47.5 24.6,47.6 c 0,0 0.1,0.6 -0.1,1 -0.1,0.2 -0.2,0.5 -0.2,0.9 0,0.4 0.1,0.8 0.2,1.2 0.1,0.7 0.2,1.5 0.5,1.7 0.2,0.2 0.4,-0.3 0.5,-0.8 0.1,-0.3 0.2,-0.5 0.2,-0.9 -0.1,-0.4 -0.2,-0.8 -0.2,-1.2 m 0.7,-0.7 v 5 l 2.5,2.4 v -5 z m -5,-5 v 5 l 2.6,2.4 v -5 z"
     id="path10" />
  <path
     fill="#e8e8e8"
     d="m 20,60 12.5,12.5 v -10 L 20,50 Z"
     id="path11" />
  <use
     href="#emojioneKaaba0"
     fill="#3e4347"
     opacity="0.2"
     id="use11"
     transform="translate(18,18)" />
  <path
     fill="#dbb471"
     d="M 32.5,72.5 H 80 V 80 H 32.5 Z"
     id="path12" />
  <path
     fill="#3e4347"
     d="M 32.5,72.5 H 80 V 80 H 32.5 Z"
     opacity="0.5"
     id="path13" />
  <path
     fill="#dbb471"
     d="M 32.5,80 20,67.5 V 60 l 12.5,12.5 z"
     id="path14" />
  <path
     fill="#3e4347"
     d="M 32.5,80 20,67.5 V 60 l 12.5,12.5 z"
     opacity="0.25"
     id="path15" />
  <path
     fill="#ffce31"
     d="m 41.2,60 h 10 v 17.5 h -10 z"
     id="path16" />
  <g
     fill="#f2b200"
     id="g18"
     transform="translate(18,18)">
    <path
       d="m 23.2,58.2 h 10 v 1.2 h -10 z"
       id="path17" />
    <path
       d="m 32,37 h 1.2 V 59.5 H 32 Z"
       id="path18" />
  </g>
  <path
     fill="#dbb471"
     d="m 41.2,55 v 17.5 h 4.3 l 0.7,-5 0.8,5 h 4.2 V 55 Z"
     id="path19" />
  <g
     fill="#ffffff"
     id="g21"
     transform="translate(18,18)">
    <path
       d="m 30.8,47 h -5.1 l -1.2,-1.2 1.2,-1.3 h 5.1 l 1.2,1.3 z"
       opacity="0.33"
       id="path20" />
    <circle
       cx="30.799999"
       cy="50.799999"
       r="1.3"
       opacity="0.33"
       id="circle20" />
    <circle
       cx="25.799999"
       cy="50.799999"
       r="1.2"
       opacity="0.33"
       id="circle21" />
    <path
       d="m 25.8,41 c -0.2,-0.2 -0.1,-0.4 -0.1,-0.4 l -0.4,-0.2 -0.4,0.2 c 0,0 0.1,0.2 -0.1,0.4 -0.1,0.1 -0.2,0.3 -0.2,0.4 0,0.2 0.1,0.3 0.2,0.4 0.1,0.3 0.3,0.5 0.6,0.5 0.3,0 0.4,-0.3 0.6,-0.5 0.1,-0.1 0.2,-0.3 0.2,-0.4 C 26,41.3 25.9,41.1 25.8,41 m 2,0 c -0.2,-0.2 -0.1,-0.4 -0.1,-0.4 l -0.4,-0.2 -0.4,0.2 c 0,0 0.1,0.2 -0.1,0.4 -0.1,0.1 -0.2,0.3 -0.2,0.4 0,0.2 0.1,0.3 0.2,0.4 0.1,0.3 0.3,0.5 0.6,0.5 0.3,0 0.4,-0.3 0.6,-0.5 0.1,-0.1 0.2,-0.3 0.2,-0.4 C 28,41.3 27.9,41.1 27.8,41 m 2,0 c -0.2,-0.2 -0.1,-0.4 -0.1,-0.4 l -0.4,-0.2 -0.4,0.2 c 0,0 0.1,0.2 -0.1,0.4 -0.1,0.1 -0.2,0.3 -0.2,0.4 0,0.2 0.1,0.3 0.2,0.4 0.1,0.3 0.3,0.5 0.6,0.5 0.3,0 0.4,-0.3 0.6,-0.5 0.1,-0.1 0.2,-0.3 0.2,-0.4 C 30,41.3 29.9,41.1 29.8,41 m 2,0 c -0.2,-0.2 -0.1,-0.4 -0.1,-0.4 l -0.4,-0.2 -0.4,0.2 c 0,0 0.1,0.2 -0.1,0.4 -0.1,0.1 -0.2,0.3 -0.2,0.4 0,0.2 0.1,0.3 0.2,0.4 0.1,0.3 0.3,0.5 0.6,0.5 0.3,0 0.4,-0.3 0.6,-0.5 0.1,-0.1 0.2,-0.3 0.2,-0.4 C 32,41.3 31.9,41.1 31.8,41"
       opacity="0.33"
       id="path21" />
  </g>
  <path
     fill="#dbb471"
     d="m 32.5,77.3 -1.7,-1.7 v -2.1 l 1.7,1.7 v -0.4 l -3.6,-3.6 v -2.3 l -0.3,-0.3 v 2.3 l -2.2,-2.2 v -2.3 l -0.3,-0.3 v 2.3 L 22.7,65 v -2.3 l -0.3,-0.3 v 2.3 L 20,62.3 v 0.4 l 0.8,0.8 v 2.1 L 20,64.8 v 0.4 l 2.3,2.3 v 2.3 l 0.3,0.3 v -2.3 l 2.2,2.2 v 2.3 l 0.3,0.3 v -2.3 l 4.1,4.1 v 2.3 l 0.3,0.3 v -2.3 l 3,3 z m -8.9,-8.9 -2.5,-2.5 v -2.1 l 2.5,2.5 z m 3.7,3.7 -3.4,-3.4 v -2.1 l 3.4,3.4 z m 3.2,3.1 -2.8,-2.8 v -2.1 l 2.8,2.8 z m 49.5,0 v -0.3 h -5.5 v -2.3 h -0.3 v 2.3 h -4.8 v -2.3 h -0.3 v 2.3 h -4.6 v -2.3 h -0.3 v 2.3 h -4.1 v -2.3 h -0.3 v 2.3 h -5.3 v -2.3 h -0.3 v 2.3 h -3 v 0.3 H 56 v 2.2 H 38.3 v -2.2 h 3 v -0.3 h -4.8 v -2.3 h -0.3 v 2.3 h -3.6 v 0.3 H 38 v 2.2 h -5.5 v 0.3 h 1.1 V 80 h 0.3 v -2.3 h 5.9 V 80 h 0.3 V 77.7 H 45 V 80 h 0.3 V 77.7 H 49 V 80 h 0.3 v -2.3 h 2.9 V 80 h 0.3 V 77.7 H 58 V 80 h 0.3 v -2.3 h 5 V 80 h 0.3 V 77.7 H 69 V 80 h 0.3 v -2.3 h 4.8 V 80 h 0.3 V 77.7 H 80 v -0.3 h -3.6 v -2.2 z m -18.3,2.1 h -5.3 v -2.2 h 5.3 z m 3.8,0 H 62 v -2.2 h 3.4 z m 5.6,0 h -5.3 v -2.2 h 5.3 z m 5,0 h -4.7 v -2.2 h 4.7 z"
     id="path22" />
</svg>
